<svg width="255" height="111" xmlns="http://www.w3.org/2000/svg" preserveAspectRatio="xMidYMid meet">
 <title>Logo</title>
 <g>
  <title>Layer 1</title>
  <g id="svg_10">
   <g transform="translate(739.8460083007812,280.1619873046875) scale(1.2489908933639526) " id="svg_7">
    <path fill="#9E9E9E" d="m-457.207306,-208.793045c-15.77298,-0.524994 -18.348969,-12.985992 -18.348969,-12.985992h-32.842987c-3.863007,14.026001 -18.35202,12.723022 -18.35202,12.723022c-1.93396,51.17598 34.772003,71.951996 34.772003,71.951996s-32.842987,-23.380997 -32.842987,-69.874008c0,0 13.52597,0.776001 17.713989,-11.947998h29.61499c0,0 4.501953,10.906998 17.708984,11.947998c0,0 5.149994,41.295013 -32.194,69.875c39.600983,-25.720993 34.770996,-71.690002 34.770996,-71.690002" id="svg_8"/>
    <path fill="#ea4a4f" d="m-506.242279,-215.359039c0,0 -2.27002,10.947998 -16.22995,10.570007c0,0 -1.511047,35.481995 25.66394,61.524994c0,0 -22.646973,-23.022995 -22.646973,-59.636993c-0.000977,-0.001007 11.324982,-1.133011 13.212982,-12.458008" id="svg_9"/>
   </g>
  </g>
 </g>
</svg>